<svg width="28" height="28" viewBox="0 0 28 28" fill="none" xmlns="http://www.w3.org/2000/svg">
<path d="M5.6766 11.6309C5.66793 11.7169 5.62997 11.7973 5.56909 11.8587C5.50821 11.9201 5.4281 11.9587 5.34215 11.9681C3.20171 12.1975 1.55554 14.3045 1.55554 16.8696C1.55554 19.5879 3.44088 22.0698 5.76604 22.0698H21.8186C22.363 22.0554 22.8138 22.0084 23.266 21.8556C24.5101 21.2446 26.4444 19.2138 26.4444 16.59C26.4444 13.8374 24.5424 11.5838 22.1355 11.401C22.0469 11.3957 21.9625 11.361 21.8957 11.3024C21.8288 11.2438 21.7834 11.1647 21.7665 11.0775C21.229 8.31638 18.7483 6.24127 15.8153 6.24127C13.9098 6.24127 12.2115 7.10422 11.109 8.47699C11.0013 8.61116 10.8204 8.67261 10.6618 8.60572C10.2371 8.42799 9.7891 8.34166 9.28782 8.34166C7.39315 8.34166 5.83799 9.78755 5.6766 11.6305" fill="#D0CFCE"/>
<path d="M23.1171 21.5678C25.0398 20.9358 26.4444 18.9393 26.4444 16.5733C26.4444 13.8203 24.5424 11.5671 22.1355 11.3839C22.0469 11.3786 21.9626 11.344 21.8958 11.2855C21.829 11.227 21.7835 11.1479 21.7665 11.0608C21.229 8.29966 18.7483 6.22455 15.8153 6.22455C13.9098 6.22455 12.2115 7.08749 11.109 8.45988C11.0013 8.59405 10.8204 8.65549 10.6618 8.58899C10.2371 8.41088 9.7891 8.32455 9.28782 8.32455C7.39315 8.32455 5.83799 9.77083 5.6766 11.6138C5.66801 11.6999 5.6301 11.7804 5.56921 11.8418C5.50832 11.9033 5.42815 11.9419 5.34215 11.9513C3.20171 12.1808 1.55554 14.2878 1.55554 16.8533C1.55554 19.5716 3.44088 21.775 5.76604 21.775H19.8512" stroke="black" stroke-width="0.5" stroke-linecap="round" stroke-linejoin="round"/>
<path d="M12.3223 12.4686C11.8524 12.8571 11.2545 13.0565 10.6454 13.0278C10.0363 13.0567 9.4382 12.8575 8.96814 12.4689M19.0318 12.4686C18.5619 12.8571 17.964 13.0565 17.3549 13.0278C16.7458 13.0567 16.1477 12.8575 15.6776 12.4689M15.4043 17.6295C16.0486 17.6295 16.5709 17.1869 16.5709 16.6413C16.5709 16.2318 16.2773 15.8807 15.8585 15.7306C15.7126 15.679 15.559 15.6527 15.4043 15.6528M15.2382 19.6023C15.6037 19.6023 16.0222 19.3807 16.1447 19.0299C16.3407 18.4691 16.0066 17.8422 15.3984 17.6299M21.7579 15.2748C21.6814 15.225 21.6155 15.1606 21.5639 15.0853C21.5123 15.01 21.4761 14.9253 21.4572 14.836C21.4384 14.7467 21.4373 14.6545 21.454 14.5648C21.4708 14.4751 21.5051 14.3895 21.5549 14.3131C21.9737 13.6698 22.7819 13.5827 23.478 13.9071C25.0347 14.6319 25.0903 16.4309 24.2526 17.7174C22.5925 20.1841 19.775 19.1788 17.9239 18.1028" stroke="black" stroke-width="0.5" stroke-linecap="round" stroke-linejoin="round"/>
<path d="M19.0812 23.0848C19.1232 23.3703 19.2585 23.6339 19.466 23.8344C19.6736 24.0349 19.9416 24.161 20.2284 24.1932C20.9447 24.2737 21.5907 23.7413 21.6712 23.0245C21.9819 20.2226 18.0137 18.1028 18.0137 18.1028" stroke="black" stroke-width="0.47675" stroke-linecap="round" stroke-linejoin="round"/>
</svg>
