<svg width="24" height="24" viewBox="0 0 24 24" fill="none" xmlns="http://www.w3.org/2000/svg">
<rect width="24" height="24" fill="#121212"/>
<path d="M8.49996 2.00005H3.49996C3.30167 1.98114 3.1038 2.04015 2.94826 2.16458C2.79271 2.28902 2.69171 2.46911 2.66663 2.66671V22H9.33329V2.66671C9.30821 2.46911 9.2072 2.28902 9.05166 2.16458C8.89612 2.04015 8.69825 1.98114 8.49996 2.00005Z" fill="white"/>
<path d="M22.5133 20.7267L17.8866 8.52671C17.8556 8.44484 17.8087 8.3699 17.7486 8.30616C17.6886 8.24242 17.6166 8.19114 17.5367 8.15523C17.4569 8.11932 17.3707 8.0995 17.2832 8.09689C17.1957 8.09429 17.1085 8.10895 17.0266 8.14004L14.6666 9.06004V6.00004C14.6666 5.82323 14.5964 5.65366 14.4714 5.52864C14.3463 5.40361 14.1768 5.33337 14 5.33337H10.6666V22H14.6666V9.79337L19.2866 22L22.5133 20.7267Z" fill="white"/>
</svg>
