<svg width="27" height="21" viewBox="0 0 27 21" fill="none" xmlns="http://www.w3.org/2000/svg">
<path d="M24.918 1.85655C24.2583 1.26797 23.475 0.801067 22.6129 0.482513C21.7507 0.16396 20.8267 0 19.8934 0C18.9602 0 18.0361 0.16396 17.174 0.482513C16.3119 0.801067 15.5286 1.26797 14.8688 1.85655L13.4997 3.07749L12.1305 1.85655C10.7979 0.668216 8.99047 0.000615956 7.10587 0.000615968C5.22128 0.000615981 3.41387 0.668216 2.08126 1.85655C0.748652 3.04489 1.40413e-08 4.65662 0 6.33718C-1.40413e-08 8.01774 0.748652 9.62947 2.08126 10.8178L13.4997 21L24.918 10.8178C25.5781 10.2295 26.1017 9.53099 26.4589 8.76219C26.8161 7.99339 27 7.16936 27 6.33718C27 5.50499 26.8161 4.68096 26.4589 3.91216C26.1017 3.14336 25.5781 2.44486 24.918 1.85655Z" fill="#1DB954"/>
</svg>
