<svg width="28" height="28" viewBox="0 0 28 28" fill="none" xmlns="http://www.w3.org/2000/svg">
<path d="M11.6667 24.5H16.3333C16.3333 25.7833 15.2833 26.8333 14 26.8333C12.7167 26.8333 11.6667 25.7833 11.6667 24.5ZM24.5 22.1667V23.3333H3.5V22.1667L5.83333 19.8333V12.8333C5.83333 9.21667 8.16667 6.06667 11.6667 5.01667V4.66667C11.6667 3.38333 12.7167 2.33333 14 2.33333C15.2833 2.33333 16.3333 3.38333 16.3333 4.66667V5.01667C19.8333 6.06667 22.1667 9.21667 22.1667 12.8333V19.8333L24.5 22.1667ZM19.8333 12.8333C19.8333 9.56667 17.2667 7 14 7C10.7333 7 8.16667 9.56667 8.16667 12.8333V21H19.8333V12.8333Z" fill="white"/>
</svg>
