<svg width="28" height="28" viewBox="0 0 28 28" fill="none" xmlns="http://www.w3.org/2000/svg">
<path d="M8.16667 7.00001C8.16667 14.0933 13.9067 19.8333 21 19.8333C21.6183 19.8333 22.225 19.7867 22.82 19.705C20.9417 22.5867 17.6983 24.5 14 24.5C8.20167 24.5 3.5 19.7983 3.5 14C3.5 10.3017 5.41333 7.05834 8.295 5.18001C8.21333 5.77501 8.16667 6.38167 8.16667 7.00001Z" fill="white" stroke="white" stroke-width="2" stroke-linecap="round" stroke-linejoin="round"/>
<path d="M17.7566 7.03501L20.7083 4.77167L16.9866 4.66667L15.75 1.16667L14.5133 4.66667L10.7916 4.77167L13.7433 7.03501L12.6816 10.605L15.75 8.49334L18.8183 10.605L17.7566 7.03501Z" fill="white"/>
<path d="M22.8783 14.2917L24.7917 12.8333L22.3883 12.775L21.5833 10.5L20.7783 12.775L18.375 12.8333L20.2883 14.2917L19.6 16.6017L21.5833 15.2367L23.5667 16.6017L22.8783 14.2917Z" fill="white"/>
</svg>
