<svg width="28" height="28" viewBox="0 0 28 28" fill="none" xmlns="http://www.w3.org/2000/svg">
<mask id="mask0_50_322" style="mask-type:luminance" maskUnits="userSpaceOnUse" x="2" y="2" width="24" height="24">
<path d="M9.33333 3.5H4.66667C4.35725 3.5 4.0605 3.62292 3.84171 3.84171C3.62292 4.0605 3.5 4.35725 3.5 4.66667V9.33333M9.33333 24.5H4.66667C4.35725 24.5 4.0605 24.3771 3.84171 24.1583C3.62292 23.9395 3.5 23.6428 3.5 23.3333V18.6667M18.6667 24.5H23.3333C23.6428 24.5 23.9395 24.3771 24.1583 24.1583C24.3771 23.9395 24.5 23.6428 24.5 23.3333V18.6667M18.6667 3.5H23.3333C23.6428 3.5 23.9395 3.62292 24.1583 3.84171C24.3771 4.0605 24.5 4.35725 24.5 4.66667V9.33333" stroke="white" stroke-width="2" stroke-linecap="round" stroke-linejoin="round"/>
<path d="M14 18.0833C14.5362 18.0833 15.0672 17.9777 15.5626 17.7725C16.058 17.5673 16.5081 17.2665 16.8873 16.8874C17.2665 16.5082 17.5673 16.058 17.7725 15.5626C17.9777 15.0672 18.0833 14.5362 18.0833 14C18.0833 13.4638 17.9777 12.9328 17.7725 12.4374C17.5673 11.942 17.2665 11.4918 16.8873 11.1127C16.5081 10.7335 16.058 10.4327 15.5626 10.2275C15.0672 10.0223 14.5362 9.91667 14 9.91667C12.917 9.91667 11.8784 10.3469 11.1126 11.1127C10.3468 11.8784 9.91663 12.917 9.91663 14C9.91663 15.083 10.3468 16.1216 11.1126 16.8874C11.8784 17.6531 12.917 18.0833 14 18.0833Z" fill="white" stroke="white" stroke-width="2" stroke-miterlimit="10" stroke-linecap="round" stroke-linejoin="round"/>
<path d="M14 9.91666V7.58333M14 20.4167V18.0833M20.4167 14H18.0834M9.91671 14H7.58337" stroke="white" stroke-width="2" stroke-miterlimit="10" stroke-linecap="round" stroke-linejoin="round"/>
<path d="M14 15.1667C14.3095 15.1667 14.6062 15.0437 14.825 14.825C15.0438 14.6062 15.1667 14.3094 15.1667 14C15.1667 13.6906 15.0438 13.3938 14.825 13.175C14.6062 12.9562 14.3095 12.8333 14 12.8333C13.6906 12.8333 13.3939 12.9562 13.1751 13.175C12.9563 13.3938 12.8334 13.6906 12.8334 14C12.8334 14.3094 12.9563 14.6062 13.1751 14.825C13.3939 15.0437 13.6906 15.1667 14 15.1667Z" fill="black"/>
</mask>
<g mask="url(#mask0_50_322)">
<path d="M0 0H28V28H0V0Z" fill="white"/>
</g>
</svg>
