<svg width="23" height="24" viewBox="0 0 23 24" fill="none" xmlns="http://www.w3.org/2000/svg">
<path fill-rule="evenodd" clip-rule="evenodd" d="M2.05173 10.2856C2.05173 8.126 2.87396 6.05486 4.33752 4.52779C5.80108 3.00073 7.7861 2.14283 9.85589 2.14283C11.9257 2.14283 13.9107 3.00073 15.3743 4.52779C16.8378 6.05486 17.66 8.126 17.66 10.2856C17.66 12.4452 16.8378 14.5163 15.3743 16.0434C13.9107 17.5705 11.9257 18.4284 9.85589 18.4284C7.7861 18.4284 5.80108 17.5705 4.33752 16.0434C2.87396 14.5163 2.05173 12.4452 2.05173 10.2856ZM9.85589 8.82727e-08C8.32235 0.000323218 6.81004 0.373947 5.43919 1.09116C4.06834 1.80838 2.87677 2.84941 1.95922 4.13147C1.04166 5.41354 0.423438 6.90128 0.153696 8.4764C-0.116046 10.0515 -0.029865 11.6706 0.405386 13.2049C0.840638 14.7391 1.61295 16.1463 2.66093 17.3145C3.7089 18.4826 5.00363 19.3796 6.44217 19.934C7.88071 20.4884 9.42337 20.685 10.9475 20.5082C12.4717 20.3313 13.9352 19.7859 15.2219 18.9152L19.4936 23.3723C19.8788 23.7742 20.4012 24 20.946 24C21.4908 24 22.0132 23.7742 22.3984 23.3723C22.7836 22.9704 23 22.4253 23 21.8569C23 21.2885 22.7836 20.7434 22.3984 20.3415L18.1266 15.8844C19.0923 14.3317 19.6385 12.5358 19.7076 10.6863C19.7767 8.83669 19.3662 7.00194 18.5193 5.37549C17.6724 3.74905 16.4206 2.39118 14.8958 1.44509C13.3711 0.499005 11.6299 -0.000242374 9.85589 8.82727e-08Z" fill="white"/>
</svg>
