<svg width="28" height="28" viewBox="0 0 28 28" fill="none" xmlns="http://www.w3.org/2000/svg">
<path fill-rule="evenodd" clip-rule="evenodd" d="M15.589 4.12534C16.1537 4.23384 16.9785 4.51617 17.3763 5.31184C18.2478 7.05484 17.528 8.7115 16.7557 9.74167C16.2517 10.4137 15.603 11.046 14.8482 11.4333C14.6907 11.515 14.3698 11.6667 14 11.6667C13.3105 11.6667 12.635 11.3528 12.0808 10.9608C11.9758 11.3178 11.8743 11.7098 11.7868 12.1252C11.6138 12.9221 11.52 13.7341 11.5068 14.5495C12.7353 14.1528 13.9918 14.1948 15.0745 14.8062C15.8882 14.1672 16.824 13.7015 17.8243 13.4377C19.341 13.0398 21.161 13.0947 22.8142 14.196C23.9983 14.9858 24.8955 16.4733 25.0763 18.1008C25.2653 19.7972 24.6762 21.6522 22.8947 23.0778C21.637 24.0835 19.7202 24.472 17.9562 24.6132C16.1303 24.7602 14.2018 24.6598 12.705 24.493C9.93067 24.185 7.80033 23.4103 6.31166 22.6112C5.33516 22.0862 3.99933 21.3605 3.57583 20.2487C3.29 19.495 3.36466 18.5803 3.43466 17.7963C3.528 16.7685 3.75666 15.4852 4.18483 14.0945C5.03883 11.319 6.71066 8.03484 9.75683 5.51717C10.6937 4.7425 12.2617 4.26184 13.5742 4.10084C14.2508 4.018 14.9625 4.00634 15.589 4.12534Z" fill="white"/>
</svg>
