<svg width="14" height="16" viewBox="0 0 14 16" fill="none" xmlns="http://www.w3.org/2000/svg">
<path d="M5.7444 4.26906L2.10314 7.91032C1.87295 8.14052 1.57997 8.25562 1.22422 8.25562C0.868461 8.25562 0.575486 8.14052 0.345291 7.91032C0.115097 7.68013 0 7.38715 0 7.0314C0 6.67564 0.115097 6.38267 0.345291 6.15247L6.12108 0.376682C6.3722 0.12556 6.66518 0 7.00001 0C7.33484 0 7.62781 0.12556 7.87893 0.376682L13.6547 6.15247C13.8849 6.38267 14 6.67564 14 7.0314C14 7.38715 13.8849 7.68013 13.6547 7.91032C13.4245 8.14052 13.1316 8.25562 12.7758 8.25562C12.42 8.25562 12.1271 8.14052 11.8969 7.91032L8.25561 4.26906V14.565C8.25561 14.9208 8.13508 15.2192 7.894 15.4603C7.65292 15.7014 7.35493 15.8215 7.00001 15.8206C6.64509 15.8198 6.34709 15.6993 6.10602 15.459C5.86494 15.2188 5.7444 14.9208 5.7444 14.565V4.26906Z" fill="#1DB954"/>
</svg>
